<?xml version="1.0" encoding="utf-8"?>
<!-- Svg Vector Icons : http://www.onlinewebfonts.com/icon -->
<!DOCTYPE svg PUBLIC "-//W3C//DTD SVG 1.1//EN" "http://www.w3.org/Graphics/SVG/1.1/DTD/svg11.dtd">
<svg version="1.1" xmlns="http://www.w3.org/2000/svg" xmlns:xlink="http://www.w3.org/1999/xlink" x="0px" y="0px" viewBox="0 0 1000 1000" enable-background="new 0 0 1000 1000" xml:space="preserve" fill="#bb9100">
<metadata> Svg Vector Icons : http://www.onlinewebfonts.com/icon </metadata>
<g><g transform="translate(0.000000,511.000000) scale(0.100000,-0.100000)"><path d="M6949.9,4198.4c-49-37.5-49-57.6-2.9-596.3c28.8-308.2,49-573.2,49-593.4c0-20.1-57.6-69.1-126.8-109.5c-218.9-126.7-207.4-190.1,54.7-342.8c213.2-123.9,311.1-129.6,325.4-14.4c5.8,60.5-11.5,89.3-97.9,138.3l-106.6,63.4l95.1,80.6l95,77.8l-34.6,357.2c-17.3,193-28.8,360.1-23.1,365.8c5.8,5.8,74.9-86.4,152.7-207.4c158.4-241.9,201.6-259.2,357.2-144c121,89.3,138.2,89.3,149.8,8.6c5.8-51.8,28.8-66.2,95.1-66.2h86.4l-5.8,195.9c-2.9,190.1-37.4,279.4-109.4,279.4c-20.2,0-95.1-46.1-167.1-100.8c-72-54.7-144-100.8-161.3-100.8c-14.4,0-126.7,155.6-250.6,345.7C7085.3,4209.9,7033.4,4258.9,6949.9,4198.4z"/><path d="M9251.4,3155.7c-31.7-86.4,31.7-141.2,175.7-149.8l135.4-8.6l-77.7-92.2c-60.5-72-72-109.5-60.5-193c25.9-181.5,69.1-259.2,147-259.2c97.9,0,132.5,72,95,190.1c-28.8,89.3-20.1,103.7,106.6,256.3c92.2,106.6,132.5,178.6,126.7,221.8c-8.6,63.4-23,66.2-319.7,74.9C9311.9,3201.7,9268.7,3196,9251.4,3155.7z"/><path d="M8145.3,3106.7c-288-80.6-524.3-279.4-636.6-535.8c-63.3-144-83.5-463.8-43.2-628c23.1-92.2,23.1-95-144-175.7c-132.5-63.4-167-92.2-167-146.9c0-123.9,74.9-138.3,267.9-51.9l175.7,80.7l132.5-129.6c172.8-170,383.1-247.7,656.7-247.7c371.6,0,682.7,204.5,841.1,555.9c69.2,146.9,77.8,195.9,66.2,403.3c-11.5,279.4-80.6,443.6-262.1,628C8807.8,3086.5,8439.1,3190.2,8145.3,3106.7z M8623.5,2864.7c293.8-97.9,507-443.6,463.7-748.9c-43.2-328.3-316.8-593.4-653.8-633.7c-129.6-14.4-141.2-11.5-141.2,43.2c0,43.2,25.9,63.4,86.4,77.8c121,25.9,167,118.1,95,190.1c-51.8,51.8-63.3,51.8-201.6,11.5c-158.4-46.1-198.7-80.6-216-181.5l-8.6-63.4l-106.6,72c-60.5,40.3-109.4,83.5-109.4,97.9c0,11.5,69.1,51.8,152.6,92.2c118.1,54.7,149.8,83.5,149.8,138.3c0,121-74.9,135.4-259.2,49c-92.2-40.3-175.7-69.1-184.4-60.5s-20.1,97.9-25.9,198.8c-8.6,141.1,2.9,213.1,51.9,328.4c92.2,216,391.7,466.6,360.1,302.4c-69.1-351.4-23.1-417.7,247.7-337c34.5,8.6,54.7-25.9,83.5-146.9c40.3-164.2,100.8-230.4,184.4-198.7c23,8.6,48.9,31.7,54.7,54.7c20.2,51.8-92.1,483.9-132.5,512.7c-20.2,11.5-77.8,17.3-126.8,8.7c-92.1-14.4-95-11.5-95,95c0,60.5,8.6,118.1,20.1,126.7C8344,2928.1,8479.4,2916.6,8623.5,2864.7z"/><path d="M3006.6,2709.2C1776.6,2550.8,696.5,1680.9,273.1,499.9C120.4,73.6,97.3-84.8,100.2-658.1c0-486.8,8.6-558.8,80.6-820.9c158.4-587.6,509.8-1178.1,950.5-1592.9c495.4-469.5,1111.9-774.8,1774.4-884.3c1483.4-239.1,2926.5,512.7,3586.2,1869.4c218.9,446.5,305.3,792.1,322.6,1302c25.9,636.6-77.7,1137.8-339.8,1662L6362.3,1099l221.8,100.8c365.8,161.3,426.3,198.8,434.9,262.1c5.8,31.7-11.5,77.7-37.4,97.9c-37.5,31.7-97.9,11.5-391.7-115.2L6238.4,1292l-100.8,126.7C5368.6,2377.9,4202,2859,3006.6,2709.2z M4245.2,2412.5c622.2-161.3,1221.3-541.5,1633.2-1037c161.3-190.1,167.1-170-103.7-290.9l-155.5-69.1l-89.3,141.1c-121,187.2-293.8,334.2-521.4,443.6c-161.3,77.8-218.9,89.3-417.7,89.3c-293.8,0-472.4-66.2-665.4-250.6c-216-204.5-311.1-423.4-322.6-766.2c-14.4-328.4,54.7-579,227.6-841.1c504.1-751.8,1492.1-740.3,1849.2,23c80.7,172.8,89.3,221.8,92.2,466.6c0,149.8-11.5,325.5-23.1,388.9l-23,115.2l210.3,92.2l210.3,89.3l77.7-132.5C6422.8,528.7,6569.7,21.7,6607.1-442c14.4-201.6,8.6-241.9-43.2-325.5c-184.4-296.7-1039.9-584.7-2073.9-699.9c-432.1-49-1650.5-49-2073.9,0c-1060,118.1-1906.9,409-2082.6,717.2c-51.9,86.4-51.9,118.1-23.1,409c149.8,1423,1181,2543.4,2586.6,2808.4C3248.5,2533.5,3879.4,2507.6,4245.2,2412.5z M4942.2,1387.1c167.1-83.5,365.8-265,437.8-400.4c31.7-57.6,23-66.3-97.9-118.1c-118.1-51.8-132.5-66.2-123.9-135.4c11.5-100.8,118.1-121,253.5-51.8c51.8,25.9,97.9,43.2,103.7,37.4c5.7-8.6,23-92.1,34.6-193c106.6-772-509.8-1261.7-1155-918.9c-492.6,265-725.9,930.4-498.3,1422.9C4086.8,1441.8,4530.3,1591.6,4942.2,1387.1z M794.4-1335c1486.3-593.4,4643.3-495.4,5665.8,175.7l112.3,74.9l-20.1-141.2c-31.7-213.1-181.5-633.7-308.2-872.8c-250.6-463.7-630.8-878.5-1062.9-1160.8c-279.4-181.5-481.1-276.5-809.4-380.2c-314-97.9-337-95-230.4,34.6c100.8,123.9,109.5,158.4,43.2,221.8c-66.2,69.1-89.3,60.5-236.2-100.8c-74.9-80.6-190.1-178.6-259.2-218.9c-118.1-72-141.2-72-446.5-60.5c-1094.6,51.8-2114.3,731.6-2624.1,1745.5c-97.9,193-239.1,613.6-262.1,792.1l-20.2,138.3l135.4-86.4C543.8-1219.7,690.7-1291.8,794.4-1335z"/><path d="M2283.6,2164.8c-169.9-83.5-328.4-210.3-328.4-259.2c0-144,95-146.9,314-2.9c97.9,60.5,204.5,118.1,244.8,129.6c83.5,20.2,115.2,89.3,74.9,164.2C2545.7,2271.4,2482.3,2265.6,2283.6,2164.8z"/><path d="M2084.8,1093.2c-54.7-80.6-187.2-489.7-187.2-581.8c0-141.2,169.9-178.6,207.4-46.1c37.4,132.5,158.4,504.1,178.6,550.2c23.1,51.8-49,141.1-112.3,141.1C2148.2,1156.6,2110.8,1127.8,2084.8,1093.2z"/><path d="M1122.8,756.3C1062.3,609.3,918.3,62.1,918.3-33c0-40.3-14.4-49-63.4-31.7C817.5-56,771.4-33,754.1-18.6C733.9-1.3,685,1.6,641.7-7.1c-57.6-14.4-72-34.6-63.4-97.9c5.8-63.4,37.4-92.2,161.3-149.8l152.7-72l-17.3-149.8c-20.2-167.1,17.3-267.9,95-267.9c86.4,0,121,63.4,121,210.3c0,118.1,8.6,138.3,46.1,123.9c97.9-37.5,501.2-132.5,743.1-175.7c279.4-46.1,334.1-34.6,334.1,86.4c0,77.8-28.8,89.3-282.3,129.6c-242,37.4-760.4,167.1-792.1,198.8c-31.7,31.7,51.8,443.6,149.8,728.8c89.3,265,80.7,339.9-37.4,339.9C1197.7,897.4,1171.7,868.6,1122.8,756.3z"/><path d="M4403.6,848.4c-89.3-31.7-204.5-167.1-233.3-273.6c-37.4-146.9,8.6-316.8,129.6-446.5c77.8-83.5,118.1-103.7,236.2-115.2c267.9-25.9,414.8,112.3,414.8,388.9C4950.9,695.8,4654.2,937.7,4403.6,848.4z M4657.1,571.9c95.1-100.8,112.3-230.4,37.5-305.3c-34.6-34.6-80.7-60.5-106.6-60.5c-77.8,0-213.1,161.3-213.1,256.4C4374.8,629.5,4541.9,695.8,4657.1,571.9z"/><path d="M1494.4-1882.2c-25.9-31.7-25.9-63.4-2.9-132.5c17.3-51.9,28.8-97.9,23.1-103.7c-5.8-5.7-69.1,11.5-144,40.3c-109.5,40.3-138.3,43.2-175.7,11.5c-54.7-46.1-60.5-129.6-8.7-169.9c17.3-14.4,126.8-57.6,239.1-92.2l201.6-66.3l97.9-187.2c106.6-204.5,377.3-581.9,498.3-691.3c92.2-86.4,204.5-77.8,216,17.3c8.6,46.1-28.8,109.5-121,207.4c-144,152.7-406.1,541.5-383.1,567.5c8.6,8.6,129.6,0,270.8-20.2c138.3-17.3,371.6-28.8,512.7-23c259.2,8.6,259.2,8.6,267.9,89.3c5.8,46.1-5.8,83.5-28.8,89.3c-20.2,5.8-218.9,25.9-440.7,40.3c-221.8,17.3-475.3,46.1-564.6,66.3c-158.4,31.7-161.3,34.5-213.1,181.5c-28.8,80.6-63.4,164.2-80.6,184.3C1621.1-1827.5,1537.6-1830.4,1494.4-1882.2z"/><path d="M5187.1-1873.6c-14.4-20.1-48.9-80.6-74.9-129.6c-43.2-83.5-60.5-95.1-164.2-95.1c-141.1,0-227.5-43.2-227.5-109.5c0-74.9,57.6-121,149.8-121c43.2,0,80.6-5.8,80.6-14.4c0-8.7-40.3-80.7-92.2-161.3c-95-155.5-89.3-230.4,17.3-250.6c72-14.4,123.9,40.4,253.5,273.7c112.4,204.5,118.1,210.3,224.7,210.3c144,0,259.2,89.3,213.1,164.2c-17.3,28.8-72,54.7-123.9,60.5c-72,8.7-89.3,23.1-89.3,74.9C5354.2-1859.2,5250.4-1798.7,5187.1-1873.6z"/><path d="M2511.1-2792.4c-54.7-54.7-46.1-135.4,20.2-170c31.7-17.3,138.3-28.8,239.1-23c164.2,8.6,178.6,14.4,187.2,77.8c14.4,95.1-11.5,109.5-224.7,132.5C2597.6-2760.8,2537.1-2766.5,2511.1-2792.4z"/><path d="M7468.4,1052.9c-135.4-239.1-118.1-282.3,112.3-293.8l161.3-8.6l8.6-365.8l8.7-365.8l77.7-8.6c74.9-8.6,100.8,20.2,314,351.4c129.6,198.7,242,362.9,253.5,362.9c11.5,0,46.1-20.2,77.8-43.2c126.8-95,296.7-20.2,221.8,97.9c-34.6,57.6-293.8,201.6-362.9,204.5c-31.7,0-103.7-83.5-201.6-233.3l-149.8-233.3l-14.4,184.4c-8.7,100.8-25.9,198.8-37.5,218.9c-14.4,17.3-74.9,34.6-141.2,34.6c-97.9,0-112.3,5.8-92.1,51.8c11.5,25.9,23.1,89.3,23.1,135.4c2.9,72-8.7,86.4-74.9,95C7586.5,1245.9,7563.4,1222.9,7468.4,1052.9z"/></g></g>
</svg>